<?xml version="1.0" encoding="UTF-8" standalone="no"?>
<svg width="800" height="1000" xmlns="http://www.w3.org/2000/svg">
  <!-- 标题 -->
  <text x="400" y="30" font-family="Arial" font-size="20" text-anchor="middle" font-weight="bold">登录模块方法功能说明</text>
  
  <!-- UIObject 类方法表格 -->
  <rect x="50" y="50" width="700" height="150" fill="#E8F4F9" stroke="#2980B9" stroke-width="2" rx="5" ry="5"/>
  <text x="400" y="75" font-family="Arial" font-size="16" text-anchor="middle" font-weight="bold">UIObject 类方法说明</text>
  
  <!-- 表头 -->
  <rect x="70" y="90" width="200" height="30" fill="#AED6F1" stroke="#2980B9" stroke-width="1"/>
  <rect x="270" y="90" width="460" height="30" fill="#AED6F1" stroke="#2980B9" stroke-width="1"/>
  <text x="170" y="110" font-family="Arial" font-size="14" text-anchor="middle" font-weight="bold">方法名</text>
  <text x="500" y="110" font-family="Arial" font-size="14" text-anchor="middle" font-weight="bold">功能描述</text>
  
  <!-- 方法行 -->
  <rect x="70" y="120" width="200" height="30" fill="white" stroke="#2980B9" stroke-width="1"/>
  <rect x="270" y="120" width="460" height="30" fill="white" stroke="#2980B9" stroke-width="1"/>
  <text x="80" y="140" font-family="Arial" font-size="12">$(String id, Class&lt;T&gt; clazz)</text>
  <text x="280" y="140" font-family="Arial" font-size="12">通过ID查找UI元素并转换为指定类型</text>
  
  <rect x="70" y="150" width="200" height="30" fill="white" stroke="#2980B9" stroke-width="1"/>
  <rect x="270" y="150" width="460" height="30" fill="white" stroke="#2980B9" stroke-width="1"/>
  <text x="80" y="170" font-family="Arial" font-size="12">move()</text>
  <text x="280" y="170" font-family="Arial" font-size="12">设置窗口可拖动，实现鼠标拖拽移动窗口的功能</text>
  
  <!-- LoginInit 类方法表格 -->
  <rect x="50" y="220" width="700" height="150" fill="#E8F4F9" stroke="#2980B9" stroke-width="2" rx="5" ry="5"/>
  <text x="400" y="245" font-family="Arial" font-size="16" text-anchor="middle" font-weight="bold">LoginInit 类方法说明</text>
  
  <!-- 表头 -->
  <rect x="70" y="260" width="200" height="30" fill="#AED6F1" stroke="#2980B9" stroke-width="1"/>
  <rect x="270" y="260" width="460" height="30" fill="#AED6F1" stroke="#2980B9" stroke-width="1"/>
  <text x="170" y="280" font-family="Arial" font-size="14" text-anchor="middle" font-weight="bold">方法名</text>
  <text x="500" y="280" font-family="Arial" font-size="14" text-anchor="middle" font-weight="bold">功能描述</text>
  
  <!-- 方法行 -->
  <rect x="70" y="290" width="200" height="30" fill="white" stroke="#2980B9" stroke-width="1"/>
  <rect x="270" y="290" width="460" height="30" fill="white" stroke="#2980B9" stroke-width="1"/>
  <text x="80" y="310" font-family="Arial" font-size="12">LoginInit(ILoginEvent)</text>
  <text x="280" y="310" font-family="Arial" font-size="12">构造函数，加载FXML资源，初始化窗口属性，获取UI控件引用</text>
  
  <rect x="70" y="320" width="200" height="30" fill="white" stroke="#2980B9" stroke-width="1"/>
  <rect x="270" y="320" width="460" height="30" fill="white" stroke="#2980B9" stroke-width="1"/>
  <text x="80" y="340" font-family="Arial" font-size="12">obtain()</text>
  <text x="280" y="340" font-family="Arial" font-size="12">获取登录界面中的各个UI控件引用（按钮、输入框等）</text>
  
  <!-- LoginController 类方法表格 -->
  <rect x="50" y="390" width="700" height="180" fill="#EAFAF1" stroke="#27AE60" stroke-width="2" rx="5" ry="5"/>
  <text x="400" y="415" font-family="Arial" font-size="16" text-anchor="middle" font-weight="bold">LoginController 类方法说明</text>
  
  <!-- 表头 -->
  <rect x="70" y="430" width="200" height="30" fill="#A9DFBF" stroke="#27AE60" stroke-width="1"/>
  <rect x="270" y="430" width="460" height="30" fill="#A9DFBF" stroke="#27AE60" stroke-width="1"/>
  <text x="170" y="450" font-family="Arial" font-size="14" text-anchor="middle" font-weight="bold">方法名</text>
  <text x="500" y="450" font-family="Arial" font-size="14" text-anchor="middle" font-weight="bold">功能描述</text>
  
  <!-- 方法行 -->
  <rect x="70" y="460" width="200" height="30" fill="white" stroke="#27AE60" stroke-width="1"/>
  <rect x="270" y="460" width="460" height="30" fill="white" stroke="#27AE60" stroke-width="1"/>
  <text x="80" y="480" font-family="Arial" font-size="12">initView()</text>
  <text x="280" y="480" font-family="Arial" font-size="12">初始化视图，创建LoginView实例</text>
  
  <rect x="70" y="490" width="200" height="30" fill="white" stroke="#27AE60" stroke-width="1"/>
  <rect x="270" y="490" width="460" height="30" fill="white" stroke="#27AE60" stroke-width="1"/>
  <text x="80" y="510" font-family="Arial" font-size="12">initEventDefine()</text>
  <text x="280" y="510" font-family="Arial" font-size="12">初始化事件定义，创建LoginEventDefine实例</text>
  
  <rect x="70" y="520" width="200" height="30" fill="white" stroke="#27AE60" stroke-width="1"/>
  <rect x="270" y="520" width="460" height="30" fill="white" stroke="#27AE60" stroke-width="1"/>
  <text x="80" y="540" font-family="Arial" font-size="12">doShow()</text>
  <text x="280" y="540" font-family="Arial" font-size="12">显示登录窗口，调用父类的show()方法</text>
  
  <!-- ILoginMethod 接口方法表格 -->
  <rect x="50" y="590" width="700" height="150" fill="#FEF9E7" stroke="#F39C12" stroke-width="2" rx="5" ry="5"/>
  <text x="400" y="615" font-family="Arial" font-size="16" text-anchor="middle" font-weight="bold">ILoginMethod 接口方法说明</text>
  
  <!-- 表头 -->
  <rect x="70" y="630" width="200" height="30" fill="#FCF3CF" stroke="#F39C12" stroke-width="1"/>
  <rect x="270" y="630" width="460" height="30" fill="#FCF3CF" stroke="#F39C12" stroke-width="1"/>
  <text x="170" y="650" font-family="Arial" font-size="14" text-anchor="middle" font-weight="bold">方法名</text>
  <text x="500" y="650" font-family="Arial" font-size="14" text-anchor="middle" font-weight="bold">功能描述</text>
  
  <!-- 方法行 -->
  <rect x="70" y="660" width="200" height="30" fill="white" stroke="#F39C12" stroke-width="1"/>
  <rect x="270" y="660" width="460" height="30" fill="white" stroke="#F39C12" stroke-width="1"/>
  <text x="80" y="680" font-family="Arial" font-size="12">doShow()</text>
  <text x="280" y="680" font-family="Arial" font-size="12">显示登录窗口</text>
  
  <rect x="70" y="690" width="200" height="30" fill="white" stroke="#F39C12" stroke-width="1"/>
  <rect x="270" y="690" width="460" height="30" fill="white" stroke="#F39C12" stroke-width="1"/>
  <text x="80" y="710" font-family="Arial" font-size="12">doLoginError()</text>
  <text x="280" y="710" font-family="Arial" font-size="12">登录失败时的处理方法</text>
  
  <!-- ILoginEvent 接口方法表格 -->
  <rect x="50" y="760" width="700" height="100" fill="#FEF9E7" stroke="#F39C12" stroke-width="2" rx="5" ry="5"/>
  <text x="400" y="785" font-family="Arial" font-size="16" text-anchor="middle" font-weight="bold">ILoginEvent 接口方法说明</text>
  
  <!-- 表头 -->
  <rect x="70" y="800" width="200" height="30" fill="#FCF3CF" stroke="#F39C12" stroke-width="1"/>
  <rect x="270" y="800" width="460" height="30" fill="#FCF3CF" stroke="#F39C12" stroke-width="1"/>
  <text x="170" y="820" font-family="Arial" font-size="14" text-anchor="middle" font-weight="bold">方法名</text>
  <text x="500" y="820" font-family="Arial" font-size="14" text-anchor="middle" font-weight="bold">功能描述</text>
  
  <!-- 方法行 -->
  <rect x="70" y="830" width="200" height="30" fill="white" stroke="#F39C12" stroke-width="1"/>
  <rect x="270" y="830" width="460" height="30" fill="white" stroke="#F39C12" stroke-width="1"/>
  <text x="80" y="850" font-family="Arial" font-size="12">doLoginCheck(String, String)</text>
  <text x="280" y="850" font-family="Arial" font-size="12">验证用户名和密码，执行登录验证逻辑</text>
  
  <!-- LoginEventDefine 类方法表格 -->
  <rect x="50" y="880" width="700" height="150" fill="#EAFAF1" stroke="#27AE60" stroke-width="2" rx="5" ry="5"/>
  <text x="400" y="905" font-family="Arial" font-size="16" text-anchor="middle" font-weight="bold">LoginEventDefine 类方法说明</text>
  
  <!-- 表头 -->
  <rect x="70" y="920" width="200" height="30" fill="#A9DFBF" stroke="#27AE60" stroke-width="1"/>
  <rect x="270" y="920" width="460" height="30" fill="#A9DFBF" stroke="#27AE60" stroke-width="1"/>
  <text x="170" y="940" font-family="Arial" font-size="14" text-anchor="middle" font-weight="bold">方法名</text>
  <text x="500" y="940" font-family="Arial" font-size="14" text-anchor="middle" font-weight="bold">功能描述</text>
  
  <!-- 方法行 -->
  <rect x="70" y="950" width="200" height="30" fill="white" stroke="#27AE60" stroke-width="1"/>
  <rect x="270" y="950" width="460" height="30" fill="white" stroke="#27AE60" stroke-width="1"/>
  <text x="80" y="970" font-family="Arial" font-size="12">min()</text>
  <text x="280" y="970" font-family="Arial" font-size="12">绑定最小化按钮事件，实现窗口最小化功能</text>
  
  <rect x="70" y="980" width="200" height="30" fill="white" stroke="#27AE60" stroke-width="1"/>
  <rect x="270" y="980" width="460" height="30" fill="white" stroke="#27AE60" stroke-width="1"/>
  <text x="80" y="1000" font-family="Arial" font-size="12">doEventLogin()</text>
  <text x="280" y="1000" font-family="Arial" font-size="12">绑定登录按钮事件，调用ILoginEvent接口的doLoginCheck方法</text>
</svg>